<svg width="96" height="96" viewBox="0 0 480 480" fill="none" xmlns="http://www.w3.org/2000/svg">
<mask id="path-1-outside-1_603_26" maskUnits="userSpaceOnUse" x="235.972" y="123" width="132" height="166" fill="black">
<rect fill="white" x="235.972" y="123" width="132" height="166"/>
<path d="M328.179 282.418C322.384 282.418 318.185 280.953 315.581 278.023C313.563 275.81 312.554 272.815 312.554 269.039C312.554 266.044 313.009 262.594 313.921 258.688C314.832 254.716 316.167 249.605 317.925 243.355C319.683 237.04 320.985 231.832 321.831 227.73C322.742 223.629 323.198 219.853 323.198 216.402C323.198 212.171 322.319 208.883 320.562 206.539C318.608 204.065 315.483 202.828 311.187 202.828C308.778 202.828 306.564 203.089 304.546 203.609L288.53 279H259.819L286.968 151.754L316.558 147.848L306.792 194.039H308.354C312.326 194.039 316.069 192.997 319.585 190.914C323.101 188.766 326.193 185.901 328.862 182.32C331.336 178.935 333.257 175.191 334.624 171.09C336.056 166.988 336.772 163.017 336.772 159.176C336.772 156.311 336.317 153.609 335.405 151.07C334.559 148.531 333.289 146.318 331.597 144.43C327.756 140.263 322.157 138.18 314.8 138.18C306.662 138.18 299.272 139.286 292.632 141.5C286.056 143.648 280.392 146.839 275.64 151.07C270.822 155.302 267.144 160.445 264.604 166.5C262.065 172.555 260.796 179.326 260.796 186.812C260.796 190.979 261.252 194.299 262.163 196.773C262.423 197.62 262.749 198.368 263.14 199.02C263.4 199.475 263.53 199.931 263.53 200.387C256.304 200.387 251.03 198.954 247.71 196.09C243.999 192.965 242.144 187.919 242.144 180.953C242.144 176.591 243.088 172.294 244.976 168.062C246.864 163.766 249.533 159.632 252.983 155.66C256.239 151.884 260.112 148.368 264.604 145.113C269.162 141.793 274.077 138.928 279.351 136.52C290.418 131.507 301.421 129 312.358 129C319.91 129 326.551 129.879 332.28 131.637C338.075 133.329 342.925 135.738 346.831 138.863C350.477 141.793 353.211 145.178 355.034 149.02C356.857 152.796 357.769 156.799 357.769 161.031C357.769 167.411 355.913 173.596 352.202 179.586C348.035 186.227 342.697 191.435 336.187 195.211C341.33 196.773 344.943 199.28 347.026 202.73C348.979 206.051 349.956 210.217 349.956 215.23C349.956 218.941 349.533 222.913 348.687 227.145C347.84 231.311 346.636 236.259 345.073 241.988C343.315 248.368 342.046 253.251 341.265 256.637C340.548 259.957 340.19 263.017 340.19 265.816C340.19 268.941 340.874 271.708 342.241 274.117C343.673 276.461 345.594 278.089 348.003 279C339.995 281.279 333.387 282.418 328.179 282.418Z"/>
</mask>
<path d="M328.179 282.418C322.384 282.418 318.185 280.953 315.581 278.023C313.563 275.81 312.554 272.815 312.554 269.039C312.554 266.044 313.009 262.594 313.921 258.688C314.832 254.716 316.167 249.605 317.925 243.355C319.683 237.04 320.985 231.832 321.831 227.73C322.742 223.629 323.198 219.853 323.198 216.402C323.198 212.171 322.319 208.883 320.562 206.539C318.608 204.065 315.483 202.828 311.187 202.828C308.778 202.828 306.564 203.089 304.546 203.609L288.53 279H259.819L286.968 151.754L316.558 147.848L306.792 194.039H308.354C312.326 194.039 316.069 192.997 319.585 190.914C323.101 188.766 326.193 185.901 328.862 182.32C331.336 178.935 333.257 175.191 334.624 171.09C336.056 166.988 336.772 163.017 336.772 159.176C336.772 156.311 336.317 153.609 335.405 151.07C334.559 148.531 333.289 146.318 331.597 144.43C327.756 140.263 322.157 138.18 314.8 138.18C306.662 138.18 299.272 139.286 292.632 141.5C286.056 143.648 280.392 146.839 275.64 151.07C270.822 155.302 267.144 160.445 264.604 166.5C262.065 172.555 260.796 179.326 260.796 186.812C260.796 190.979 261.252 194.299 262.163 196.773C262.423 197.62 262.749 198.368 263.14 199.02C263.4 199.475 263.53 199.931 263.53 200.387C256.304 200.387 251.03 198.954 247.71 196.09C243.999 192.965 242.144 187.919 242.144 180.953C242.144 176.591 243.088 172.294 244.976 168.062C246.864 163.766 249.533 159.632 252.983 155.66C256.239 151.884 260.112 148.368 264.604 145.113C269.162 141.793 274.077 138.928 279.351 136.52C290.418 131.507 301.421 129 312.358 129C319.91 129 326.551 129.879 332.28 131.637C338.075 133.329 342.925 135.738 346.831 138.863C350.477 141.793 353.211 145.178 355.034 149.02C356.857 152.796 357.769 156.799 357.769 161.031C357.769 167.411 355.913 173.596 352.202 179.586C348.035 186.227 342.697 191.435 336.187 195.211C341.33 196.773 344.943 199.28 347.026 202.73C348.979 206.051 349.956 210.217 349.956 215.23C349.956 218.941 349.533 222.913 348.687 227.145C347.84 231.311 346.636 236.259 345.073 241.988C343.315 248.368 342.046 253.251 341.265 256.637C340.548 259.957 340.19 263.017 340.19 265.816C340.19 268.941 340.874 271.708 342.241 274.117C343.673 276.461 345.594 278.089 348.003 279C339.995 281.279 333.387 282.418 328.179 282.418Z" fill="#3C322E"/>
<path d="M315.581 278.023L320.065 274.037L320.04 274.009L320.015 273.981L315.581 278.023ZM313.921 258.688L319.764 260.051L319.766 260.04L319.769 260.03L313.921 258.688ZM317.925 243.355L323.701 244.98L323.703 244.972L323.705 244.964L317.925 243.355ZM321.831 227.73L315.974 226.429L315.964 226.473L315.955 226.518L321.831 227.73ZM320.562 206.539L325.362 202.939L325.317 202.88L325.271 202.821L320.562 206.539ZM304.546 203.609L303.047 197.8L299.449 198.728L298.677 202.363L304.546 203.609ZM288.53 279V285H293.39L294.399 280.247L288.53 279ZM259.819 279L253.951 277.748L252.404 285H259.819V279ZM286.968 151.754L286.182 145.806L281.984 146.36L281.1 150.502L286.968 151.754ZM316.558 147.848L322.428 149.089L324.183 140.789L315.772 141.899L316.558 147.848ZM306.792 194.039L300.922 192.798L299.391 200.039H306.792V194.039ZM319.585 190.914L322.644 196.076L322.679 196.055L322.714 196.034L319.585 190.914ZM328.862 182.32L333.673 185.906L333.69 185.883L333.707 185.86L328.862 182.32ZM334.624 171.09L328.959 169.112L328.945 169.152L328.932 169.192L334.624 171.09ZM335.405 151.07L329.713 152.968L329.735 153.033L329.758 153.098L335.405 151.07ZM331.597 144.43L336.064 140.424L336.036 140.393L336.008 140.363L331.597 144.43ZM292.632 141.5L294.495 147.203L294.512 147.198L294.529 147.192L292.632 141.5ZM275.64 151.07L279.599 155.578L279.614 155.565L279.63 155.551L275.64 151.07ZM262.163 196.773L267.898 195.009L267.85 194.853L267.793 194.699L262.163 196.773ZM263.14 199.02L268.349 196.043L268.317 195.987L268.285 195.933L263.14 199.02ZM263.53 200.387V206.387H269.53V200.387H263.53ZM247.71 196.09L251.629 191.547L251.602 191.523L251.575 191.5L247.71 196.09ZM244.976 168.062L250.455 170.507L250.462 170.492L250.469 170.476L244.976 168.062ZM252.983 155.66L257.513 159.595L257.52 159.587L257.528 159.578L252.983 155.66ZM264.604 145.113L268.125 149.972L268.131 149.967L268.138 149.963L264.604 145.113ZM279.351 136.52L276.875 131.054L276.866 131.058L276.858 131.062L279.351 136.52ZM332.28 131.637L330.52 137.373L330.559 137.385L330.598 137.396L332.28 131.637ZM346.831 138.863L350.589 134.186L350.579 134.178L346.831 138.863ZM355.034 149.02L349.614 151.592L349.622 151.61L349.631 151.628L355.034 149.02ZM352.202 179.586L357.285 182.775L357.294 182.76L357.303 182.746L352.202 179.586ZM336.187 195.211L333.176 190.021L321.243 196.942L334.442 200.952L336.187 195.211ZM347.026 202.73L352.198 199.688L352.181 199.659L352.163 199.629L347.026 202.73ZM348.687 227.145L354.566 228.339L354.568 228.33L354.57 228.321L348.687 227.145ZM345.073 241.988L350.858 243.582L350.86 243.574L350.862 243.567L345.073 241.988ZM341.265 256.637L335.418 255.288L335.409 255.33L335.4 255.372L341.265 256.637ZM342.241 274.117L337.023 277.079L337.071 277.163L337.122 277.246L342.241 274.117ZM348.003 279L349.645 284.771L367.09 279.807L350.126 273.388L348.003 279ZM328.179 276.418C323.268 276.418 321.077 275.175 320.065 274.037L311.097 282.01C315.294 286.732 321.501 288.418 328.179 288.418V276.418ZM320.015 273.981C319.247 273.139 318.554 271.724 318.554 269.039H306.554C306.554 273.906 307.878 278.481 311.147 282.066L320.015 273.981ZM318.554 269.039C318.554 266.628 318.924 263.651 319.764 260.051L308.078 257.324C307.095 261.537 306.554 265.461 306.554 269.039H318.554ZM319.769 260.03C320.65 256.191 321.956 251.184 323.701 244.98L312.149 241.731C310.378 248.027 309.015 253.241 308.073 257.345L319.769 260.03ZM323.705 244.964C325.481 238.582 326.823 233.23 327.707 228.943L315.955 226.518C315.147 230.434 313.884 235.498 312.145 241.747L323.705 244.964ZM327.688 229.032C328.675 224.592 329.198 220.373 329.198 216.402H317.198C317.198 219.333 316.81 222.666 315.974 226.429L327.688 229.032ZM329.198 216.402C329.198 211.429 328.177 206.692 325.362 202.939L315.762 210.139C316.462 211.073 317.198 212.912 317.198 216.402H329.198ZM325.271 202.821C321.802 198.427 316.609 196.828 311.187 196.828V208.828C314.358 208.828 315.415 209.703 315.852 210.257L325.271 202.821ZM311.187 196.828C308.348 196.828 305.624 197.135 303.047 197.8L306.045 209.419C307.505 209.042 309.207 208.828 311.187 208.828V196.828ZM298.677 202.363L282.661 277.753L294.399 280.247L310.415 204.856L298.677 202.363ZM288.53 273H259.819V285H288.53V273ZM265.687 280.252L292.836 153.006L281.1 150.502L253.951 277.748L265.687 280.252ZM287.753 157.702L317.343 153.796L315.772 141.899L286.182 145.806L287.753 157.702ZM310.687 146.607L300.922 192.798L312.662 195.28L322.428 149.089L310.687 146.607ZM306.792 200.039H308.354V188.039H306.792V200.039ZM308.354 200.039C313.434 200.039 318.23 198.691 322.644 196.076L316.526 185.752C313.908 187.304 311.217 188.039 308.354 188.039V200.039ZM322.714 196.034C326.936 193.454 330.585 190.049 333.673 185.906L324.052 178.734C321.801 181.753 319.266 184.078 316.456 185.794L322.714 196.034ZM333.707 185.86C336.558 181.959 338.759 177.658 340.316 172.987L328.932 169.192C327.755 172.724 326.115 175.911 324.018 178.78L333.707 185.86ZM340.289 173.068C341.914 168.413 342.772 163.772 342.772 159.176H330.772C330.772 162.261 330.198 165.564 328.959 169.112L340.289 173.068ZM342.772 159.176C342.772 155.663 342.211 152.272 341.052 149.043L329.758 153.098C330.422 154.947 330.772 156.959 330.772 159.176H342.772ZM341.097 149.173C340.006 145.899 338.335 142.957 336.064 140.424L327.129 148.435C328.244 149.678 329.112 151.164 329.713 152.968L341.097 149.173ZM336.008 140.363C330.717 134.623 323.305 132.18 314.8 132.18V144.18C321.009 144.18 324.794 145.903 327.185 148.497L336.008 140.363ZM314.8 132.18C306.119 132.18 298.077 133.36 290.734 135.808L294.529 147.192C300.468 145.213 307.204 144.18 314.8 144.18V132.18ZM290.768 135.797C283.476 138.179 277.071 141.762 271.65 146.589L279.63 155.551C283.713 151.915 288.636 149.118 294.495 147.203L290.768 135.797ZM271.68 146.562C266.162 151.409 261.954 157.307 259.071 164.18L270.138 168.82C272.334 163.584 275.482 159.195 279.599 155.578L271.68 146.562ZM259.071 164.18C256.184 171.065 254.796 178.64 254.796 186.812H266.796C266.796 180.011 267.947 174.044 270.138 168.82L259.071 164.18ZM254.796 186.812C254.796 191.325 255.277 195.438 256.533 198.848L267.793 194.699C267.226 193.161 266.796 190.634 266.796 186.812H254.796ZM256.428 198.538C256.808 199.773 257.318 200.978 257.995 202.107L268.285 195.933C268.18 195.759 268.039 195.467 267.898 195.009L256.428 198.538ZM257.93 201.996C257.752 201.685 257.53 201.125 257.53 200.387H269.53C269.53 198.737 269.048 197.266 268.349 196.043L257.93 201.996ZM263.53 194.387C256.875 194.387 253.346 193.028 251.629 191.547L243.791 200.633C248.714 204.881 255.732 206.387 263.53 206.387V194.387ZM251.575 191.5C249.728 189.945 248.144 186.947 248.144 180.953H236.144C236.144 188.892 238.27 195.985 243.845 200.679L251.575 191.5ZM248.144 180.953C248.144 177.485 248.888 174.018 250.455 170.507L239.496 165.618C237.287 170.57 236.144 175.697 236.144 180.953H248.144ZM250.469 170.476C252.086 166.794 254.411 163.165 257.513 159.595L248.454 151.725C244.655 156.098 241.641 160.737 239.482 165.649L250.469 170.476ZM257.528 159.578C260.448 156.191 263.968 152.984 268.125 149.972L261.084 140.255C256.257 143.753 252.03 147.577 248.439 151.743L257.528 159.578ZM268.138 149.963C272.36 146.886 276.926 144.223 281.844 141.977L276.858 131.062C271.228 133.633 265.963 136.7 261.071 140.264L268.138 149.963ZM281.826 141.985C292.203 137.285 302.365 135 312.358 135V123C300.477 123 288.634 125.728 276.875 131.054L281.826 141.985ZM312.358 135C319.462 135 325.487 135.829 330.52 137.373L334.04 125.901C327.615 123.929 320.359 123 312.358 123V135ZM330.598 137.396C335.792 138.913 339.901 141.003 343.083 143.548L350.579 134.178C345.949 130.474 340.357 127.746 333.963 125.877L330.598 137.396ZM343.073 143.54C346.084 145.96 348.216 148.648 349.614 151.592L360.455 146.447C358.206 141.709 354.869 137.626 350.589 134.186L343.073 143.54ZM349.631 151.628C351.057 154.583 351.769 157.694 351.769 161.031H363.769C363.769 155.905 362.657 151.008 360.437 146.411L349.631 151.628ZM351.769 161.031C351.769 166.18 350.288 171.283 347.102 176.426L357.303 182.746C361.538 175.91 363.769 168.642 363.769 161.031H351.769ZM347.12 176.397C343.449 182.248 338.808 186.754 333.176 190.021L339.197 200.401C346.586 196.116 352.622 190.205 357.285 182.775L347.12 176.397ZM334.442 200.952C338.649 202.23 340.798 204.023 341.89 205.832L352.163 199.629C349.088 194.537 344.011 191.317 337.931 189.47L334.442 200.952ZM341.855 205.773C343.125 207.933 343.956 210.972 343.956 215.23H355.956C355.956 209.462 354.833 204.169 352.198 199.688L341.855 205.773ZM343.956 215.23C343.956 218.489 343.584 222.062 342.803 225.968L354.57 228.321C355.482 223.763 355.956 219.394 355.956 215.23H343.956ZM342.807 225.95C341.994 229.949 340.825 234.762 339.285 240.41L350.862 243.567C352.447 237.756 353.686 232.674 354.566 228.339L342.807 225.95ZM339.289 240.395C337.525 246.797 336.228 251.777 335.418 255.288L347.111 257.986C347.863 254.725 349.106 249.939 350.858 243.582L339.289 240.395ZM335.4 255.372C334.612 259.023 334.19 262.513 334.19 265.816H346.19C346.19 263.521 346.485 260.891 347.13 257.902L335.4 255.372ZM334.19 265.816C334.19 269.844 335.08 273.656 337.023 277.079L347.459 271.156C346.668 269.761 346.19 268.039 346.19 265.816H334.19ZM337.122 277.246C339.2 280.646 342.138 283.196 345.88 284.612L350.126 273.388C349.05 272.981 348.147 272.276 347.361 270.988L337.122 277.246ZM346.361 273.229C338.609 275.435 332.602 276.418 328.179 276.418V288.418C334.172 288.418 341.381 287.122 349.645 284.771L346.361 273.229Z" fill="#E64A01" mask="url(#path-1-outside-1_603_26)"/>
<mask id="path-3-outside-2_603_26" maskUnits="userSpaceOnUse" x="236.887" y="266" width="79" height="88" fill="black">
<rect fill="white" x="236.887" y="266" width="79" height="88"/>
<path d="M265.347 348.879C257.974 348.879 252.285 347.023 248.281 343.312C244.033 339.357 241.909 333.278 241.909 325.075C241.909 321.999 242.226 318.581 242.861 314.821C243.447 311.062 244.351 307.302 245.571 303.542C246.938 299.343 248.672 295.363 250.771 291.604C252.92 287.844 255.41 284.523 258.242 281.643C264.785 275.002 272.842 271.682 282.412 271.682C288.516 271.682 292.959 273.146 295.742 276.076C297.891 278.371 298.965 281.691 298.965 286.037C298.965 290.285 298.037 294.289 296.182 298.049C294.326 301.76 291.763 305.056 288.491 307.937C285.22 310.769 281.509 313.039 277.358 314.748C273.208 316.408 268.911 317.385 264.468 317.678C264.224 320.217 264.101 322.219 264.101 323.684C264.101 328.566 265.029 331.936 266.885 333.791C268.496 335.451 271.182 336.281 274.941 336.281C280.361 336.281 285.317 334.816 289.809 331.887C291.714 330.666 293.545 329.226 295.303 327.565C297.06 325.856 299.111 323.708 301.455 321.12H306.582C301.846 329.128 296.401 335.5 290.249 340.236C282.681 345.998 274.38 348.879 265.347 348.879ZM265.64 310.5C268.423 310.305 271.133 309.499 273.769 308.083C276.406 306.667 278.75 304.812 280.801 302.517C282.851 300.173 284.463 297.561 285.635 294.68C286.807 291.75 287.393 288.771 287.393 285.744C287.393 283.742 287.1 282.229 286.514 281.203C285.976 280.129 285.024 279.592 283.657 279.592C281.851 279.592 280.019 280.471 278.164 282.229C276.357 283.986 274.6 286.403 272.891 289.479C271.328 292.36 269.912 295.632 268.643 299.294C267.373 302.956 266.372 306.691 265.64 310.5Z"/>
</mask>
<path d="M265.347 348.879C257.974 348.879 252.285 347.023 248.281 343.312C244.033 339.357 241.909 333.278 241.909 325.075C241.909 321.999 242.226 318.581 242.861 314.821C243.447 311.062 244.351 307.302 245.571 303.542C246.938 299.343 248.672 295.363 250.771 291.604C252.92 287.844 255.41 284.523 258.242 281.643C264.785 275.002 272.842 271.682 282.412 271.682C288.516 271.682 292.959 273.146 295.742 276.076C297.891 278.371 298.965 281.691 298.965 286.037C298.965 290.285 298.037 294.289 296.182 298.049C294.326 301.76 291.763 305.056 288.491 307.937C285.22 310.769 281.509 313.039 277.358 314.748C273.208 316.408 268.911 317.385 264.468 317.678C264.224 320.217 264.101 322.219 264.101 323.684C264.101 328.566 265.029 331.936 266.885 333.791C268.496 335.451 271.182 336.281 274.941 336.281C280.361 336.281 285.317 334.816 289.809 331.887C291.714 330.666 293.545 329.226 295.303 327.565C297.06 325.856 299.111 323.708 301.455 321.12H306.582C301.846 329.128 296.401 335.5 290.249 340.236C282.681 345.998 274.38 348.879 265.347 348.879ZM265.64 310.5C268.423 310.305 271.133 309.499 273.769 308.083C276.406 306.667 278.75 304.812 280.801 302.517C282.851 300.173 284.463 297.561 285.635 294.68C286.807 291.75 287.393 288.771 287.393 285.744C287.393 283.742 287.1 282.229 286.514 281.203C285.976 280.129 285.024 279.592 283.657 279.592C281.851 279.592 280.019 280.471 278.164 282.229C276.357 283.986 274.6 286.403 272.891 289.479C271.328 292.36 269.912 295.632 268.643 299.294C267.373 302.956 266.372 306.691 265.64 310.5Z" fill="#3C322E"/>
<path d="M248.281 343.312L244.874 346.972L244.882 346.98L248.281 343.312ZM242.861 314.821L247.791 315.654L247.797 315.622L247.802 315.591L242.861 314.821ZM245.571 303.542L240.817 301.994L240.816 301.998L245.571 303.542ZM250.771 291.604L246.43 289.123L246.418 289.144L246.406 289.166L250.771 291.604ZM258.242 281.643L254.68 278.133L254.676 278.137L258.242 281.643ZM295.742 276.076L299.392 272.659L299.38 272.646L299.367 272.632L295.742 276.076ZM296.182 298.049L300.654 300.285L300.66 300.273L300.665 300.262L296.182 298.049ZM288.491 307.937L291.764 311.717L291.78 311.703L291.796 311.689L288.491 307.937ZM277.358 314.748L279.215 319.39L279.239 319.381L279.262 319.371L277.358 314.748ZM264.468 317.678L264.139 312.689L259.897 312.968L259.491 317.199L264.468 317.678ZM266.885 333.791L270.473 330.309L270.447 330.282L270.42 330.255L266.885 333.791ZM289.809 331.887L287.111 327.677L287.095 327.688L287.078 327.699L289.809 331.887ZM295.303 327.565L298.736 331.2L298.762 331.176L298.788 331.15L295.303 327.565ZM301.455 321.12V316.12H299.238L297.749 317.764L301.455 321.12ZM306.582 321.12L310.886 323.666L315.348 316.12H306.582V321.12ZM290.249 340.236L293.278 344.215L293.288 344.207L293.299 344.198L290.249 340.236ZM265.64 310.5L260.73 309.556L259.501 315.943L265.99 315.488L265.64 310.5ZM280.801 302.517L284.529 305.848L284.546 305.829L284.564 305.809L280.801 302.517ZM285.635 294.68L290.266 296.564L290.272 296.55L290.277 296.537L285.635 294.68ZM286.514 281.203L282.041 283.439L282.104 283.563L282.172 283.684L286.514 281.203ZM278.164 282.229L274.725 278.599L274.701 278.622L274.677 278.645L278.164 282.229ZM272.891 289.479L268.52 287.051L268.507 287.073L268.495 287.096L272.891 289.479ZM265.347 343.879C258.785 343.879 254.476 342.236 251.68 339.645L244.882 346.98C250.095 351.81 257.162 353.879 265.347 353.879V343.879ZM251.688 339.653C248.818 336.981 246.909 332.477 246.909 325.075H236.909C236.909 334.08 239.248 341.734 244.874 346.972L251.688 339.653ZM246.909 325.075C246.909 322.335 247.193 319.201 247.791 315.654L237.931 313.989C237.26 317.961 236.909 321.663 236.909 325.075H246.909ZM247.802 315.591C248.345 312.104 249.185 308.603 250.327 305.086L240.816 301.998C239.516 306.001 238.549 310.019 237.921 314.051L247.802 315.591ZM250.326 305.09C251.595 301.191 253.199 297.511 255.137 294.041L246.406 289.166C244.144 293.216 242.282 297.494 240.817 301.994L250.326 305.09ZM255.113 294.084C257.063 290.671 259.298 287.701 261.808 285.148L254.676 278.137C251.522 281.346 248.777 285.016 246.43 289.123L255.113 294.084ZM261.804 285.152C267.379 279.493 274.141 276.682 282.412 276.682V266.682C271.543 266.682 262.191 270.511 254.68 278.133L261.804 285.152ZM282.412 276.682C287.84 276.682 290.668 277.995 292.117 279.52L299.367 272.632C295.25 268.298 289.191 266.682 282.412 266.682V276.682ZM292.092 279.493C293.088 280.557 293.965 282.471 293.965 286.037H303.965C303.965 280.912 302.693 276.185 299.392 272.659L292.092 279.493ZM293.965 286.037C293.965 289.528 293.209 292.774 291.698 295.836L300.665 300.262C302.865 295.804 303.965 291.042 303.965 286.037H293.965ZM291.709 295.813C290.156 298.919 288 301.707 285.187 304.184L291.796 311.689C295.525 308.404 298.496 304.601 300.654 300.285L291.709 295.813ZM285.219 304.156C282.37 306.622 279.125 308.613 275.455 310.125L279.262 319.371C283.892 317.465 288.069 314.915 291.764 311.717L285.219 304.156ZM275.501 310.106C271.837 311.571 268.056 312.43 264.139 312.689L264.797 322.667C269.766 322.339 274.579 321.245 279.215 319.39L275.501 310.106ZM259.491 317.199C259.241 319.799 259.101 321.984 259.101 323.684H269.101C269.101 322.453 269.206 320.634 269.445 318.156L259.491 317.199ZM259.101 323.684C259.101 328.866 260.02 333.997 263.349 337.327L270.42 330.255C270.039 329.874 269.101 328.267 269.101 323.684H259.101ZM263.297 337.273C266.295 340.362 270.641 341.281 274.941 341.281V331.281C271.722 331.281 270.697 330.54 270.473 330.309L263.297 337.273ZM274.941 341.281C281.32 341.281 287.227 339.54 292.541 336.075L287.078 327.699C283.407 330.093 279.402 331.281 274.941 331.281V341.281ZM292.508 336.096C294.692 334.696 296.767 333.06 298.736 331.2L291.87 323.93C290.323 325.391 288.736 326.636 287.111 327.677L292.508 336.096ZM298.788 331.15C300.646 329.344 302.773 327.113 305.161 324.477L297.749 317.764C295.449 320.303 293.475 322.369 291.817 323.98L298.788 331.15ZM301.455 326.12H306.582V316.12H301.455V326.12ZM302.278 318.575C297.803 326.141 292.758 331.995 287.199 336.274L293.299 344.198C300.045 339.005 305.888 332.115 310.886 323.666L302.278 318.575ZM287.22 336.258C280.473 341.395 273.225 343.879 265.347 343.879V353.879C275.534 353.879 284.888 350.602 293.278 344.215L287.22 336.258ZM265.99 315.488C269.529 315.239 272.921 314.214 276.135 312.488L271.404 303.678C269.344 304.784 267.317 305.37 265.29 305.512L265.99 315.488ZM276.135 312.488C279.3 310.788 282.101 308.565 284.529 305.848L277.072 299.185C275.399 301.058 273.513 302.545 271.404 303.678L276.135 312.488ZM284.564 305.809C286.98 303.048 288.885 299.96 290.266 296.564L281.003 292.796C280.041 295.161 278.723 297.298 277.038 299.224L284.564 305.809ZM290.277 296.537C291.675 293.042 292.393 289.434 292.393 285.744H282.393C282.393 288.109 281.938 290.458 280.992 292.823L290.277 296.537ZM292.393 285.744C292.393 283.404 292.076 280.86 290.855 278.722L282.172 283.684C282.125 283.601 282.191 283.683 282.264 284.058C282.335 284.425 282.393 284.973 282.393 285.744H292.393ZM290.986 278.967C290.317 277.63 289.283 276.446 287.853 275.64C286.462 274.855 284.989 274.592 283.657 274.592V284.592C283.693 284.592 283.379 284.597 282.94 284.35C282.463 284.08 282.173 283.702 282.041 283.439L290.986 278.967ZM283.657 274.592C280.123 274.592 277.123 276.327 274.725 278.599L281.603 285.858C282.916 284.614 283.578 284.592 283.657 284.592V274.592ZM274.677 278.645C272.413 280.847 270.379 283.704 268.52 287.051L277.261 291.908C278.82 289.103 280.301 287.125 281.651 285.812L274.677 278.645ZM268.495 287.096C266.782 290.254 265.261 293.782 263.918 297.656L273.367 300.932C274.563 297.482 275.874 294.466 277.286 291.863L268.495 287.096ZM263.918 297.656C262.57 301.545 261.507 305.512 260.73 309.556L270.55 311.444C271.237 307.871 272.176 304.367 273.367 300.932L263.918 297.656Z" fill="#E64A01" mask="url(#path-3-outside-2_603_26)"/>
<mask id="path-5-outside-3_603_26" maskUnits="userSpaceOnUse" x="10.6032" y="98" width="267" height="316" fill="black">
<rect fill="white" x="10.6032" y="98" width="267" height="316"/>
<path d="M160.869 408.273C144.723 408.273 128.447 401.177 112.041 386.984L108.72 403H51.2986L105.595 148.508L164.775 140.695L116.728 364.914C124.02 370.253 131.637 372.922 139.58 372.922C147.262 372.922 154.554 370.513 161.455 365.695C168.486 360.878 174.931 354.042 180.791 345.188C191.598 328.911 200.387 306.646 207.158 278.391C213.278 251.958 216.338 224.81 216.338 196.945C216.338 170.904 210.999 151.503 200.322 138.742C190.426 127.154 176.299 121.359 157.939 121.359C143.095 121.359 129.293 123.573 116.533 128C103.773 132.427 92.7048 138.807 83.3298 147.141C73.6944 155.734 66.2725 166.086 61.0642 178.195C55.8558 190.305 53.2517 203.781 53.2517 218.625C53.2517 226.958 54.1631 233.599 55.9861 238.547C56.5069 240.24 57.1579 241.737 57.9392 243.039C58.46 243.951 58.7204 244.862 58.7204 245.773C44.7881 245.773 34.1762 242.909 26.8845 237.18C19.5928 231.32 15.947 221.815 15.947 208.664C15.947 199.68 17.7048 190.826 21.2204 182.102C24.7361 173.247 29.8142 164.849 36.4548 156.906C42.9652 149.094 50.7777 141.932 59.8923 135.422C69.1371 128.781 79.2282 123.052 90.1657 118.234C113.343 108.078 138.213 103 164.775 103C189.384 103 210.088 108.404 226.884 119.211C242.249 129.237 253.707 143.169 261.259 161.008C268.161 177.935 271.611 197.01 271.611 218.234C271.611 233.208 270.244 248.378 267.509 263.742C264.905 279.107 261.129 293.951 256.181 308.273C251.233 322.336 245.309 335.487 238.408 347.727C231.637 359.836 224.15 370.383 215.947 379.367C207.483 388.612 198.564 395.773 189.189 400.852C179.944 405.799 170.504 408.273 160.869 408.273Z"/>
</mask>
<path d="M160.869 408.273C144.723 408.273 128.447 401.177 112.041 386.984L108.72 403H51.2986L105.595 148.508L164.775 140.695L116.728 364.914C124.02 370.253 131.637 372.922 139.58 372.922C147.262 372.922 154.554 370.513 161.455 365.695C168.486 360.878 174.931 354.042 180.791 345.188C191.598 328.911 200.387 306.646 207.158 278.391C213.278 251.958 216.338 224.81 216.338 196.945C216.338 170.904 210.999 151.503 200.322 138.742C190.426 127.154 176.299 121.359 157.939 121.359C143.095 121.359 129.293 123.573 116.533 128C103.773 132.427 92.7048 138.807 83.3298 147.141C73.6944 155.734 66.2725 166.086 61.0642 178.195C55.8558 190.305 53.2517 203.781 53.2517 218.625C53.2517 226.958 54.1631 233.599 55.9861 238.547C56.5069 240.24 57.1579 241.737 57.9392 243.039C58.46 243.951 58.7204 244.862 58.7204 245.773C44.7881 245.773 34.1762 242.909 26.8845 237.18C19.5928 231.32 15.947 221.815 15.947 208.664C15.947 199.68 17.7048 190.826 21.2204 182.102C24.7361 173.247 29.8142 164.849 36.4548 156.906C42.9652 149.094 50.7777 141.932 59.8923 135.422C69.1371 128.781 79.2282 123.052 90.1657 118.234C113.343 108.078 138.213 103 164.775 103C189.384 103 210.088 108.404 226.884 119.211C242.249 129.237 253.707 143.169 261.259 161.008C268.161 177.935 271.611 197.01 271.611 218.234C271.611 233.208 270.244 248.378 267.509 263.742C264.905 279.107 261.129 293.951 256.181 308.273C251.233 322.336 245.309 335.487 238.408 347.727C231.637 359.836 224.15 370.383 215.947 379.367C207.483 388.612 198.564 395.773 189.189 400.852C179.944 405.799 170.504 408.273 160.869 408.273Z" fill="#E64A01"/>
<path d="M112.041 386.984L115.312 383.203L108.873 377.633L107.145 385.969L112.041 386.984ZM108.72 403V408H112.79L113.616 404.015L108.72 403ZM51.2986 403L46.4086 401.957L45.1193 408H51.2986V403ZM105.595 148.508L104.941 143.551L101.442 144.013L100.705 147.465L105.595 148.508ZM164.775 140.695L169.664 141.743L171.15 134.81L164.121 135.738L164.775 140.695ZM116.728 364.914L111.839 363.866L111.16 367.034L113.775 368.948L116.728 364.914ZM161.455 365.695L158.629 361.571L158.611 361.583L158.593 361.596L161.455 365.695ZM180.791 345.188L176.625 342.422L176.621 342.428L180.791 345.188ZM207.158 278.391L212.02 279.556L212.025 279.537L212.029 279.518L207.158 278.391ZM200.322 138.742L204.157 135.534L204.141 135.514L204.124 135.495L200.322 138.742ZM116.533 128L114.894 123.276L116.533 128ZM83.3298 147.141L80.008 143.404L80.0017 143.409L83.3298 147.141ZM61.0642 178.195L56.471 176.22L61.0642 178.195ZM55.9861 238.547L60.7649 237.076L60.7249 236.946L60.6778 236.818L55.9861 238.547ZM57.9392 243.039L62.2804 240.558L62.254 240.512L62.2266 240.467L57.9392 243.039ZM58.7204 245.773V250.773H63.7204V245.773H58.7204ZM26.8845 237.18L23.7525 241.077L23.7739 241.094L23.7954 241.111L26.8845 237.18ZM21.2204 182.102L25.858 183.97L25.8628 183.959L25.8675 183.947L21.2204 182.102ZM36.4548 156.906L40.2908 160.113L40.2959 160.107L36.4548 156.906ZM59.8923 135.422L62.7985 139.491L62.8093 139.483L59.8923 135.422ZM90.1657 118.234L88.1589 113.655L88.1502 113.659L90.1657 118.234ZM226.884 119.211L229.617 115.024L229.603 115.015L229.59 115.006L226.884 119.211ZM261.259 161.008L265.889 159.12L265.877 159.089L265.864 159.059L261.259 161.008ZM267.509 263.742L262.587 262.866L262.583 262.886L262.58 262.907L267.509 263.742ZM256.181 308.273L260.898 309.933L260.903 309.92L260.907 309.906L256.181 308.273ZM238.408 347.727L234.053 345.271L234.048 345.279L234.044 345.286L238.408 347.727ZM215.947 379.367L219.635 382.743L219.639 382.739L215.947 379.367ZM189.189 400.852L191.549 405.26L191.56 405.254L191.571 405.248L189.189 400.852ZM160.869 403.273C146.284 403.273 131.125 396.882 115.312 383.203L108.77 390.766C125.769 405.472 143.162 413.273 160.869 413.273V403.273ZM107.145 385.969L103.825 401.985L113.616 404.015L116.937 387.999L107.145 385.969ZM108.72 398H51.2986V408H108.72V398ZM56.1885 404.043L110.485 149.551L100.705 147.465L46.4086 401.957L56.1885 404.043ZM106.25 153.465L165.43 145.652L164.121 135.738L104.941 143.551L106.25 153.465ZM159.886 139.648L111.839 363.866L121.617 365.962L169.664 141.743L159.886 139.648ZM113.775 368.948C121.8 374.824 130.432 377.922 139.58 377.922V367.922C132.842 367.922 126.24 365.681 119.682 360.88L113.775 368.948ZM139.58 377.922C148.384 377.922 156.661 375.14 164.317 369.795L158.593 361.596C152.447 365.886 146.14 367.922 139.58 367.922V377.922ZM164.281 369.82C171.957 364.561 178.83 357.211 184.96 347.947L176.621 342.428C171.033 350.872 165.015 357.195 158.629 361.571L164.281 369.82ZM184.956 347.953C196.205 331.012 205.173 308.13 212.02 279.556L202.296 277.225C195.601 305.161 186.991 326.811 176.625 342.422L184.956 347.953ZM212.029 279.518C218.237 252.706 221.338 225.179 221.338 196.945H211.338C211.338 224.441 208.319 251.21 202.287 277.263L212.029 279.518ZM221.338 196.945C221.338 170.358 215.91 149.58 204.157 135.534L196.487 141.951C206.088 153.425 211.338 171.449 211.338 196.945H221.338ZM204.124 135.495C193.084 122.567 177.433 116.359 157.939 116.359V126.359C175.164 126.359 187.768 131.741 196.52 141.989L204.124 135.495ZM157.939 116.359C142.593 116.359 128.231 118.649 114.894 123.276L118.172 132.724C130.356 128.497 143.598 126.359 157.939 126.359V116.359ZM114.894 123.276C101.561 127.902 89.9104 134.601 80.008 143.404L86.6516 150.878C95.4992 143.013 105.984 136.952 118.172 132.724L114.894 123.276ZM80.0017 143.409C69.8098 152.499 61.9616 163.454 56.471 176.22L65.6573 180.171C70.5835 168.718 77.579 158.97 86.6579 150.872L80.0017 143.409ZM56.471 176.22C50.9624 189.027 48.2517 203.188 48.2517 218.625H58.2517C58.2517 204.375 60.7493 191.582 65.6573 180.171L56.471 176.22ZM48.2517 218.625C48.2517 227.246 49.1842 234.548 51.2943 240.275L60.6778 236.818C59.1421 232.65 58.2517 226.67 58.2517 218.625H48.2517ZM51.2072 240.017C51.8276 242.034 52.6318 243.912 53.6517 245.612L62.2266 240.467C61.6841 239.562 61.1862 238.446 60.7649 237.076L51.2072 240.017ZM53.598 245.52C53.6801 245.663 53.7088 245.749 53.7175 245.78C53.7252 245.807 53.7204 245.801 53.7204 245.773H63.7204C63.7204 243.867 63.1666 242.109 62.2804 240.558L53.598 245.52ZM58.7204 240.773C45.3708 240.773 36.0386 238.013 29.9736 233.248L23.7954 241.111C32.3137 247.804 44.2055 250.773 58.7204 250.773V240.773ZM30.0164 233.282C24.3312 228.714 20.947 220.946 20.947 208.664H10.947C10.947 222.684 14.8545 233.927 23.7525 241.077L30.0164 233.282ZM20.947 208.664C20.947 200.35 22.5704 192.129 25.858 183.97L16.5828 180.233C12.8392 189.522 10.947 199.009 10.947 208.664H20.947ZM25.8675 183.947C29.1706 175.628 33.9617 167.683 40.2908 160.113L32.6189 153.699C25.6667 162.015 20.3015 170.867 16.5733 180.256L25.8675 183.947ZM40.2959 160.107C46.507 152.654 53.9966 145.778 62.7985 139.491L56.9861 131.353C47.5589 138.087 39.4235 145.534 32.6137 153.705L40.2959 160.107ZM62.8093 139.483C71.7586 133.054 81.5455 127.495 92.1813 122.81L88.1502 113.659C76.911 118.609 66.5156 124.508 56.9753 131.361L62.8093 139.483ZM92.1725 122.814C114.686 112.949 138.868 108 164.775 108V98C137.557 98 112 103.208 88.1589 113.655L92.1725 122.814ZM164.775 108C188.648 108 208.358 113.237 224.179 123.416L229.59 115.006C211.817 103.571 190.121 98 164.775 98V108ZM224.152 123.398C238.636 132.85 249.468 145.98 256.655 162.957L265.864 159.059C257.947 140.358 245.862 125.624 229.617 115.024L224.152 123.398ZM256.629 162.895C263.25 179.135 266.611 197.555 266.611 218.234H276.611C276.611 196.466 273.071 176.735 265.889 159.12L256.629 162.895ZM266.611 218.234C266.611 232.903 265.272 247.779 262.587 262.866L272.432 264.618C275.216 248.977 276.611 233.514 276.611 218.234H266.611ZM262.58 262.907C260.02 278.008 256.311 292.585 251.455 306.641L260.907 309.906C265.947 295.316 269.79 280.205 272.439 264.578L262.58 262.907ZM251.465 306.614C246.608 320.418 240.802 333.301 234.053 345.271L242.763 350.182C249.816 337.673 255.859 324.254 260.898 309.933L251.465 306.614ZM234.044 345.286C227.435 357.106 220.166 367.331 212.255 375.996L219.639 382.739C228.135 373.434 235.839 362.565 242.772 350.167L234.044 345.286ZM212.259 375.991C204.107 384.896 195.616 391.684 186.808 396.455L191.571 405.248C201.512 399.863 210.86 392.328 219.635 382.743L212.259 375.991ZM186.83 396.443C178.245 401.038 169.61 403.273 160.869 403.273V413.273C171.399 413.273 181.644 410.561 191.549 405.26L186.83 396.443Z" fill="#3C322E" mask="url(#path-5-outside-3_603_26)"/>
<mask id="path-7-outside-4_603_26" maskUnits="userSpaceOnUse" x="310.96" y="223" width="127" height="125" fill="black">
<rect fill="white" x="310.96" y="223" width="127" height="125"/>
<path d="M358.08 238.948C350.462 241.487 344.579 245.638 340.428 251.399C336.327 257.112 334.276 264.217 334.276 272.713C334.276 275.936 334.618 278.475 335.301 280.33C335.448 280.867 335.692 281.404 336.034 281.941C336.229 282.283 336.327 282.649 336.327 283.04C331.249 283.04 327.367 282.015 324.681 279.964C321.751 277.718 320.287 274.202 320.287 269.417C320.287 266.292 320.921 263.118 322.191 259.896C323.46 256.673 325.267 253.548 327.611 250.521C329.906 247.591 332.567 244.856 335.594 242.317C338.67 239.729 341.991 237.483 345.555 235.579C349.12 233.626 352.806 232.137 356.615 231.111C360.472 230.037 364.281 229.5 368.041 229.5C371.751 229.5 375.536 230.208 379.393 231.624L375.951 310.652L408.983 231.624H430.589L414.842 342H393.236L402.831 274.617L374.632 342H354.051L357.054 274.324L332.005 342H319.994L358.08 238.948Z"/>
</mask>
<path d="M358.08 238.948C350.462 241.487 344.579 245.638 340.428 251.399C336.327 257.112 334.276 264.217 334.276 272.713C334.276 275.936 334.618 278.475 335.301 280.33C335.448 280.867 335.692 281.404 336.034 281.941C336.229 282.283 336.327 282.649 336.327 283.04C331.249 283.04 327.367 282.015 324.681 279.964C321.751 277.718 320.287 274.202 320.287 269.417C320.287 266.292 320.921 263.118 322.191 259.896C323.46 256.673 325.267 253.548 327.611 250.521C329.906 247.591 332.567 244.856 335.594 242.317C338.67 239.729 341.991 237.483 345.555 235.579C349.12 233.626 352.806 232.137 356.615 231.111C360.472 230.037 364.281 229.5 368.041 229.5C371.751 229.5 375.536 230.208 379.393 231.624L375.951 310.652L408.983 231.624H430.589L414.842 342H393.236L402.831 274.617L374.632 342H354.051L357.054 274.324L332.005 342H319.994L358.08 238.948Z" fill="#E64A01"/>
<path d="M358.08 238.948L363.708 241.028L368.041 229.303L356.182 233.256L358.08 238.948ZM340.428 251.399L335.56 247.892L335.554 247.9L340.428 251.399ZM335.301 280.33L341.09 278.751L341.021 278.5L340.931 278.256L335.301 280.33ZM336.034 281.941L341.243 278.965L341.172 278.841L341.096 278.72L336.034 281.941ZM336.327 283.04V289.04H342.327V283.04H336.327ZM324.681 279.964L321.031 284.726L321.04 284.732L324.681 279.964ZM327.611 250.521L322.888 246.821L322.877 246.834L322.867 246.847L327.611 250.521ZM335.594 242.317L339.45 246.915L339.457 246.909L335.594 242.317ZM345.555 235.579L348.382 240.871L348.411 240.856L348.438 240.841L345.555 235.579ZM356.615 231.111L358.175 236.905L358.2 236.898L358.224 236.891L356.615 231.111ZM379.393 231.624L385.387 231.885L385.578 227.503L381.461 225.992L379.393 231.624ZM375.951 310.652L369.956 310.391L381.487 312.966L375.951 310.652ZM408.983 231.624V225.624H404.988L403.447 229.31L408.983 231.624ZM430.589 231.624L436.529 232.471L437.506 225.624H430.589V231.624ZM414.842 342V348H420.047L420.782 342.847L414.842 342ZM393.236 342L387.296 341.154L386.321 348H393.236V342ZM402.831 274.617L408.771 275.463L397.296 272.301L402.831 274.617ZM374.632 342V348H378.626L380.167 344.316L374.632 342ZM354.051 342L348.057 341.734L347.779 348H354.051V342ZM357.054 274.324L363.048 274.59L351.427 272.242L357.054 274.324ZM332.005 342V348H336.182L337.632 344.083L332.005 342ZM319.994 342L314.366 339.92L311.38 348H319.994V342ZM356.182 233.256C347.533 236.139 340.541 240.978 335.56 247.892L345.297 254.906C348.616 250.298 353.392 246.835 359.977 244.64L356.182 233.256ZM335.554 247.9C330.579 254.83 328.276 263.228 328.276 272.713H340.276C340.276 265.206 342.074 259.395 345.302 254.899L335.554 247.9ZM328.276 272.713C328.276 276.255 328.637 279.598 329.671 282.404L340.931 278.256C340.598 277.351 340.276 275.616 340.276 272.713H328.276ZM329.513 281.909C329.838 283.103 330.352 284.189 330.972 285.163L341.096 278.72C341.064 278.67 341.054 278.647 341.056 278.653C341.059 278.659 341.074 278.693 341.09 278.751L329.513 281.909ZM330.824 284.918C330.506 284.361 330.327 283.702 330.327 283.04H342.327C342.327 281.597 341.952 280.206 341.243 278.965L330.824 284.918ZM336.327 277.04C331.935 277.04 329.553 276.135 328.323 275.195L321.04 284.732C325.18 287.895 330.562 289.04 336.327 289.04V277.04ZM328.332 275.202C327.304 274.414 326.287 272.939 326.287 269.417H314.287C314.287 275.465 316.199 281.021 321.031 284.726L328.332 275.202ZM326.287 269.417C326.287 267.122 326.75 264.693 327.773 262.095L316.608 257.696C315.093 261.544 314.287 265.462 314.287 269.417H326.287ZM327.773 262.095C328.814 259.453 330.323 256.819 332.355 254.194L322.867 246.847C320.211 250.277 318.107 253.893 316.608 257.696L327.773 262.095ZM332.334 254.22C334.357 251.639 336.723 249.202 339.45 246.915L331.739 237.72C328.411 240.511 325.455 243.543 322.888 246.821L332.334 254.22ZM339.457 246.909C342.212 244.591 345.185 242.58 348.382 240.871L342.728 230.287C338.797 232.387 335.129 234.868 331.732 237.726L339.457 246.909ZM348.438 240.841C351.597 239.11 354.841 237.803 358.175 236.905L355.055 225.318C350.772 226.471 346.642 228.142 342.672 230.317L348.438 240.841ZM358.224 236.891C361.592 235.954 364.859 235.5 368.041 235.5V223.5C363.703 223.5 359.353 224.121 355.005 225.331L358.224 236.891ZM368.041 235.5C370.974 235.5 374.06 236.058 377.325 237.257L381.461 225.992C377.012 224.358 372.529 223.5 368.041 223.5V235.5ZM373.399 231.363L369.956 310.391L381.945 310.913L385.387 231.885L373.399 231.363ZM381.487 312.966L414.519 233.938L403.447 229.31L370.415 308.338L381.487 312.966ZM408.983 237.624H430.589V225.624H408.983V237.624ZM424.65 230.777L408.902 341.153L420.782 342.847L436.529 232.471L424.65 230.777ZM414.842 336H393.236V348H414.842V336ZM399.176 342.846L408.771 275.463L396.891 273.771L387.296 341.154L399.176 342.846ZM397.296 272.301L369.097 339.684L380.167 344.316L408.365 276.933L397.296 272.301ZM374.632 336H354.051V348H374.632V336ZM360.045 342.266L363.048 274.59L351.06 274.058L348.057 341.734L360.045 342.266ZM351.427 272.242L326.378 339.917L337.632 344.083L362.681 276.407L351.427 272.242ZM332.005 336H319.994V348H332.005V336ZM325.622 344.08L363.708 241.028L352.452 236.868L314.366 339.92L325.622 344.08Z" fill="#3C322E" mask="url(#path-7-outside-4_603_26)"/>
</svg>
